<svg xmlns="http://www.w3.org/2000/svg" width="278.205" height="68.035" viewBox="0 0 278.205 68.035">
  <g id="Group_11" data-name="Group 11" transform="translate(-495.777 -617.228)">
    <path id="Path_82" data-name="Path 82" d="M953.137,1122.672q-.593.482-1.21.933Q952.544,1123.155,953.137,1122.672Z" transform="translate(-404.584 -448.305)" fill="#fff"/>
    <path id="Path_83" data-name="Path 83" d="M533.5,928.243c0,.039,0,.078.005.117,0-.039,0-.077-.005-.116Z" transform="translate(-33.461 -275.856)" fill="#fff"/>
    <path id="Path_84" data-name="Path 84" d="M533.82,934.628c0,.05.007.1.01.15,0-.05-.007-.1-.01-.149Z" transform="translate(-33.743 -281.519)" fill="#fff"/>
    <path id="Path_85" data-name="Path 85" d="M987.266,1088.735c-.416.488-.845.964-1.29,1.424C986.421,1089.7,986.85,1089.223,987.266,1088.735Z" transform="translate(-434.784 -418.205)" fill="#fff"/>
    <path id="Path_86" data-name="Path 86" d="M533.4,924.478c0,.024,0,.048,0,.072v0C533.4,924.525,533.4,924.5,533.4,924.478Z" transform="translate(-33.369 -272.517)" fill="#fff"/>
    <path id="Path_87" data-name="Path 87" d="M540.126,977.766h0c.038.164.077.328.118.491h0Q540.183,978.012,540.126,977.766Z" transform="translate(-39.336 -319.78)" fill="#fff"/>
    <path id="Path_88" data-name="Path 88" d="M541.545,983.568c.029.112.059.223.089.334-.029-.111-.059-.221-.088-.332Z" transform="translate(-40.594 -324.927)" fill="#fff"/>
    <path id="Path_89" data-name="Path 89" d="M546.193,999.547c.071.219.143.436.219.653-.076-.216-.148-.434-.219-.652Z" transform="translate(-44.717 -339.099)" fill="#fff"/>
    <path id="Path_90" data-name="Path 90" d="M535.928,955.28c.01.073.02.147.031.22h0C535.948,955.426,535.938,955.353,535.928,955.28Z" transform="translate(-35.612 -299.836)" fill="#fff"/>
    <path id="Path_91" data-name="Path 91" d="M537.634,965.794h0c.028.15.056.3.086.448h0C537.69,966.092,537.662,965.943,537.634,965.794Z" transform="translate(-37.125 -309.161)" fill="#fff"/>
    <path id="Path_92" data-name="Path 92" d="M538.818,971.832c.021.1.041.2.063.3-.022-.1-.041-.2-.062-.3Z" transform="translate(-38.175 -314.517)" fill="#fff"/>
    <path id="Path_93" data-name="Path 93" d="M539.371,974.511c.012.054.026.109.038.163h0C539.4,974.619,539.383,974.565,539.371,974.511Z" transform="translate(-38.666 -316.894)" fill="#fff"/>
    <path id="Path_94" data-name="Path 94" d="M571.866,1055.236q.272.449.56.887h0q-.289-.438-.56-.887Z" transform="translate(-67.488 -388.493)" fill="#fff"/>
    <path id="Path_95" data-name="Path 95" d="M558.5,1030.468c.083.174.17.345.255.518-.086-.172-.173-.343-.255-.517Z" transform="translate(-55.629 -366.525)" fill="#fff"/>
    <path id="Path_96" data-name="Path 96" d="M553.981,1020.451c.152.361.315.717.481,1.071h0C554.3,1021.168,554.133,1020.812,553.981,1020.451Z" transform="translate(-51.624 -357.64)" fill="#fff"/>
    <path id="Path_97" data-name="Path 97" d="M600.171,1093.415q-.563-.575-1.095-1.179Q599.607,1092.839,600.171,1093.415Z" transform="translate(-91.622 -421.31)" fill="#fff"/>
    <path id="Path_98" data-name="Path 98" d="M737.9,1174.852q-.793-.141-1.569-.323Q737.1,1174.711,737.9,1174.852Z" transform="translate(-213.358 -494.3)" fill="#fff"/>
    <path id="Path_99" data-name="Path 99" d="M754.9,1178.187q.355.056.713.105h0Q755.254,1178.244,754.9,1178.187Z" transform="translate(-229.829 -497.545)" fill="#fff"/>
    <path id="Path_100" data-name="Path 100" d="M535.81,877.822c-.028.18-.055.361-.08.543l0,.018,0-.018C535.755,878.183,535.782,878,535.81,877.822Z" transform="translate(-35.435 -231.135)" fill="#fff"/>
    <path id="Path_101" data-name="Path 101" d="M536.9,961.584c.012.073.024.146.036.218h0C536.925,961.729,536.914,961.656,536.9,961.584Z" transform="translate(-36.476 -305.428)" fill="#fff"/>
    <path id="Path_102" data-name="Path 102" d="M533.335,915.363c0,.029,0,.058,0,.087,0-.029,0-.057,0-.086Z" transform="translate(-33.312 -264.432)" fill="#fff"/>
    <path id="Path_103" data-name="Path 103" d="M590.614,1082.114q.242.3.491.6-.25-.3-.491-.6Z" transform="translate(-84.116 -412.332)" fill="#fff"/>
    <path id="Path_104" data-name="Path 104" d="M813.632,963.351a20.466,20.466,0,0,0-29.874,22.384,29.578,29.578,0,0,0,8.722-.99,11.768,11.768,0,0,1,17.746-13.293A29.573,29.573,0,0,0,813.632,963.351Z" transform="translate(-254.986 -304.734)" fill="#fff"/>
    <path id="Path_105" data-name="Path 105" d="M936.175,694.633l-.043-.026q.29.181.576.369Q936.443,694.8,936.175,694.633Z" transform="translate(-390.574 -68.632)" fill="#fff"/>
    <path id="Path_106" data-name="Path 106" d="M546.194,999.55c.07.219.143.436.219.652q.3.867.662,1.711c.152.361.315.717.481,1.071A29.723,29.723,0,0,1,546.194,999.55Z" transform="translate(-44.718 -339.102)" fill="#fff"/>
    <path id="Path_107" data-name="Path 107" d="M572.428,1056.126v0q-.288-.437-.56-.883Q572.14,1055.688,572.428,1056.126Z" transform="translate(-67.489 -388.496)" fill="#fff"/>
    <path id="Path_108" data-name="Path 108" d="M930.726,691.32l-.04-.023q.286.169.567.344C931.078,691.533,930.9,691.425,930.726,691.32Z" transform="translate(-385.744 -65.696)" fill="#fff"/>
    <path id="Path_109" data-name="Path 109" d="M956.977,709.072a29.89,29.89,0,0,1,5,4.866h0A29.875,29.875,0,0,0,956.977,709.072Z" transform="translate(-409.063 -81.462)" fill="#fff"/>
    <path id="Path_110" data-name="Path 110" d="M643.221,789.681q.02-.113.04-.227c.057-.333.11-.667.156-1a29.96,29.96,0,0,0,.25-5.285q-.047-1.116-.175-2.214-.043-.366-.095-.729a29.575,29.575,0,0,0-.934-4.267q-.1-.347-.215-.69-.334-1.031-.742-2.031-.135-.333-.279-.662-.574-1.317-1.27-2.57-.347-.626-.724-1.234c-.2-.329-.416-.653-.632-.974l-.042-.006a42.762,42.762,0,0,0-47.946,35.184q.242.3.491.6.23.274.466.542.531.6,1.095,1.179.188.192.379.38.255.251.516.5a29.628,29.628,0,0,0,10.474,6.359q1.05.368,2.139.66.454.122.913.229.776.182,1.569.324.264.047.53.09.355.057.713.106h.009c.326.044.651.081.975.114a22.393,22.393,0,0,1,32.305-24.2C643.2,789.8,643.211,789.739,643.221,789.681Z" transform="translate(-84.116 -133.19)" fill="#fff"/>
    <path id="Path_111" data-name="Path 111" d="M533.677,902.346c0,.029,0,.058-.005.087,0,.082-.007.163-.011.245C533.666,902.567,533.67,902.457,533.677,902.346Z" transform="translate(-33.601 -252.887)" fill="#fff"/>
    <path id="Path_112" data-name="Path 112" d="M538.819,971.836c.021.1.04.2.063.3.012.055.025.109.038.163C538.884,972.147,538.851,971.991,538.819,971.836Z" transform="translate(-38.176 -314.521)" fill="#fff"/>
    <path id="Path_113" data-name="Path 113" d="M581.222,660.876l0,0q-.282-.216-.569-.426l-.012-.009q-.283-.207-.572-.407l-.024-.016q-.283-.2-.572-.386l-.029-.019q-.285-.187-.575-.369l-.049-.03q-.281-.175-.567-.344l-.064-.037q-.279-.164-.562-.323l-.078-.042c-.185-.1-.371-.2-.559-.3l-.09-.046c-.184-.1-.369-.192-.556-.284l-.109-.053c-.181-.089-.363-.177-.547-.262l-.128-.058c-.178-.082-.357-.163-.537-.242l-.154-.065c-.173-.074-.346-.148-.521-.219l-.169-.066c-.171-.068-.342-.137-.515-.2-.066-.025-.134-.048-.2-.073-.164-.061-.327-.121-.493-.179l-.229-.077c-.157-.054-.314-.108-.473-.159-.084-.027-.17-.052-.254-.078-.152-.047-.3-.1-.456-.141-.092-.027-.185-.052-.277-.078-.147-.042-.294-.084-.442-.124-.1-.027-.2-.052-.306-.078-.14-.036-.28-.073-.422-.107-.112-.027-.225-.051-.337-.077-.133-.03-.265-.062-.4-.09s-.26-.052-.391-.078-.235-.049-.353-.071c-.164-.031-.329-.058-.493-.086l-.257-.045q-.378-.061-.759-.113a29.719,29.719,0,0,0-10.24.379l-.281.061q-1.354.3-2.665.728-.688.223-1.361.478t-1.332.542q-1.317.574-2.57,1.27-.939.521-1.837,1.108a30.009,30.009,0,0,0-2.618,1.923q-.677.555-1.322,1.148-.265.245-.524.5-.513.5-1,1.018t-.953,1.067q-.7.819-1.337,1.691c-.238.325-.469.656-.694.992q-.137.2-.27.408-.437.674-.838,1.373-.345.6-.664,1.221-.166.323-.324.65c-.161.333-.318.669-.467,1.01q-.138.315-.268.635-.261.639-.494,1.294-.116.327-.225.658-.065.2-.128.4a29.967,29.967,0,0,0-.784,3.046q-.135.669-.24,1.35c-.028.181-.055.361-.08.543l0,.018q-.049.364-.09.727h0c-.01.085-.017.171-.025.256v.006c-.016.16-.033.321-.047.481h0v0c-.009.1-.015.2-.023.3v0c-.011.144-.022.287-.031.43-.007.111-.011.222-.017.332h0c-.007.135-.014.27-.019.4h0c0,.057,0,.114,0,.171s0,.117,0,.176v0c0,.128-.007.257-.008.385h0c0,.029,0,.057,0,.086q0,.137,0,.273v0c0,.123,0,.246,0,.369h0c0,.1,0,.2.006.3,0,.023,0,.047,0,.07v0c0,.118.006.236.01.354h0c0,.039,0,.077.005.116,0,.088.008.176.012.264v0c.006.113.011.227.018.34h0c0,.05.007.1.01.149.005.08.011.159.017.239h0c.008.109.016.218.026.327h0q.017.2.037.4h0q.016.156.033.312h0q.023.2.048.407h0q.018.148.038.3h0c.009.067.019.134.028.2s.02.146.031.219h0q.021.139.043.277h0c.011.072.024.143.035.214s.024.145.036.218h0c.015.086.031.172.047.258h0c.027.149.056.3.085.447h0c.016.078.032.156.048.234h0c.032.156.065.311.1.465h0c.015.068.031.136.047.2h0q.057.245.117.49h0c.014.055.028.11.042.165v0c.028.111.058.222.088.332.017.063.033.126.05.189h0c.011.039.022.077.033.115v.006c.053.187.106.374.163.56h0l.013.043v0q.085.278.175.554h0a29.673,29.673,0,0,0,1.361,3.433h0l.03.061h0c.082.174.17.345.255.517.059.118.115.238.176.356h0l.049.094h0q.224.432.461.856h0l.032.057h0q.261.464.538.918h0q.273.447.561.883a44.724,44.724,0,0,1,47.97-35.15A29.885,29.885,0,0,0,581.222,660.876Z" transform="translate(-33.308 -33.265)" fill="#fff"/>
    <path id="Path_114" data-name="Path 114" d="M887.048,1054.754a9.834,9.834,0,0,0-9.385,12.764l.011,0,.169-.057q.216-.075.432-.154l.2-.074c.139-.052.277-.1.416-.158l.209-.082q.206-.082.41-.167l.2-.086q.207-.088.413-.178l.182-.082c.144-.065.288-.13.431-.2l.114-.054q.8-.38,1.578-.806l.025-.013c.148-.082.3-.165.442-.25l.14-.08q.2-.119.406-.241l.166-.1q.2-.121.393-.245l.166-.105q.2-.126.391-.255l.153-.1c.134-.09.267-.18.4-.272l.118-.083c.143-.1.286-.2.427-.3h0c.412-.3.814-.613,1.21-.934.237-.193.473-.388.7-.587l.086-.074q.194-.169.385-.341l.109-.1q.186-.17.37-.343l.108-.1q.185-.177.369-.356l.089-.088q.192-.19.381-.384l.038-.04c.445-.459.875-.935,1.29-1.424.249-.293.5-.589.734-.892l.05-.063q.169-.215.333-.434l.069-.092q.161-.215.317-.433l.068-.1c.044-.062.088-.125.131-.188a9.894,9.894,0,0,0-5.456-1.644Z" transform="translate(-338.319 -388.065)" fill="#fff"/>
    <path id="Path_115" data-name="Path 115" d="M534.386,617.541a33.865,33.865,0,0,0-22.945,5.088,3.72,3.72,0,0,1,.7,1.087,32.736,32.736,0,1,1-5.52,4.451,3.7,3.7,0,0,1-.814-.785c-.034-.044-.062-.091-.094-.137a34,34,0,1,0,28.671-9.7Z" fill="#fff"/>
    <path id="Path_116" data-name="Path 116" d="M594.012,673.119a2.066,2.066,0,0,0,.557-4.1,2.1,2.1,0,0,0-.28-.019,2.066,2.066,0,0,0-.277,4.114Z" transform="translate(-85.545 -45.924)" fill="#fff"/>
    <path id="Path_117" data-name="Path 117" d="M1251.041,817.227l-6.632-10.668h-5.983v25.229h5.442V815.425l7.028,10.668h.144l7.1-10.776v16.471h5.514V806.559h-5.983Z" transform="translate(-658.695 -167.928)" fill="#fff"/>
    <path id="Path_118" data-name="Path 118" d="M1602.466,804.965l-10.813,25.409h5.659l2.307-5.658h10.668l2.306,5.658h5.8l-10.812-25.409Zm-.865,14.849,3.352-8.182,3.352,8.182Z" transform="translate(-971.991 -166.514)" fill="#fff"/>
    <path id="Path_119" data-name="Path 119" d="M1979.317,814.957v-.072a7.92,7.92,0,0,0-2.163-5.767c-1.658-1.658-4.145-2.559-7.353-2.559h-11.533v25.229h5.55v-8.073h4.361l5.406,8.073h6.488l-6.163-9.01A7.835,7.835,0,0,0,1979.317,814.957Zm-5.623.288c0,2.126-1.549,3.568-4.253,3.568h-5.623v-7.244h5.515c2.7,0,4.361,1.226,4.361,3.6Z" transform="translate(-1297.162 -167.928)" fill="#fff"/>
    <path id="Path_120" data-name="Path 120" d="M2281.061,813.859c-4.361-1.117-5.442-1.658-5.442-3.316v-.072c0-1.226,1.118-2.2,3.244-2.2a11.835,11.835,0,0,1,6.56,2.487l2.883-4.181a14.6,14.6,0,0,0-9.37-3.208c-5.154,0-8.83,3.027-8.83,7.6v.072c0,5.01,3.28,6.415,8.361,7.713,4.217,1.081,5.082,1.8,5.082,3.208v.072c0,1.478-1.37,2.378-3.64,2.378a11.573,11.573,0,0,1-7.533-3.063l-3.28,3.929a16.055,16.055,0,0,0,10.7,4.036c5.442,0,9.263-2.811,9.263-7.821v-.072C2289.063,817.031,2286.18,815.192,2281.061,813.859Z" transform="translate(-1572.851 -165.1)" fill="#fff"/>
    <rect id="Rectangle_13" data-name="Rectangle 13" width="5.551" height="25.229" transform="translate(732.104 638.631)" fill="#fff"/>
    <path id="Path_121" data-name="Path 121" d="M2792.337,826.85v-5.3h11.894v-4.938h-11.894V811.5h13.516v-4.938h-19.03v25.229h19.21V826.85Z" transform="translate(-2032.051 -167.928)" fill="#fff"/>
  </g>
</svg>
